<svg width="45" height="44" viewBox="0 0 45 44" fill="none" xmlns="http://www.w3.org/2000/svg">
<path d="M8.36339 8.59443L4.97995 10.3787L3.57332 7.70601C3.49584 7.59108 3.44557 7.46 3.42632 7.32274C3.40707 7.18547 3.41935 7.04562 3.46223 6.91381C3.65554 6.2313 6.19831 4.39894 6.96414 5.92913L8.36339 8.59443ZM14.7601 28.9543L15.5671 30.4795L18.9506 28.6952L9.05933 9.90486L5.66847 11.6892L14.5824 28.6137L14.5898 28.6212L14.7527 28.9395L14.7601 28.9543ZM41.9165 6.8694V37.1279C41.9165 38.4013 40.6357 39.4304 39.0661 39.4304H17.6105C17.2483 39.4726 16.8812 39.4355 16.5348 39.3217C16.1884 39.2079 15.8708 39.0202 15.6041 38.7715C14.4048 37.5203 14.6046 34.6107 14.7601 32.2785C14.7608 32.1991 14.7683 32.1198 14.7823 32.0416L20.4683 37.1649C20.6037 37.288 20.7813 37.3543 20.9643 37.35C21.0693 37.3489 21.1728 37.3256 21.2682 37.2818C21.3636 37.2379 21.4486 37.1744 21.5178 37.0955C21.587 37.0165 21.6387 36.9239 21.6696 36.8236C21.7006 36.7233 21.71 36.6176 21.6973 36.5134L20.6978 29.0061C20.6894 28.8801 20.6567 28.7569 20.6015 28.6434L14.7749 17.5824V6.8694C14.7749 5.60337 16.0557 4.56689 17.6253 4.56689H39.0661C40.6357 4.56689 41.9165 5.60337 41.9165 6.8694ZM36.3564 33.8777H27.3685C27.1744 33.8812 26.9895 33.9607 26.8535 34.0992C26.7175 34.2377 26.6413 34.424 26.6413 34.6181C26.6413 34.8121 26.7175 34.9984 26.8535 35.1369C26.9895 35.2754 27.1744 35.3549 27.3684 35.3584H36.3564C36.5509 35.3556 36.7364 35.2763 36.873 35.1378C37.0095 34.9993 37.086 34.8126 37.086 34.6181C37.086 34.4236 37.0095 34.2369 36.873 34.0983C36.7364 33.9598 36.5509 33.8806 36.3564 33.8777ZM36.3564 30.8497H26.332C26.1379 30.8532 25.953 30.9327 25.817 31.0712C25.681 31.2096 25.6048 31.3959 25.6048 31.59C25.6048 31.7841 25.681 31.9704 25.817 32.1089C25.953 32.2473 26.1379 32.3269 26.3319 32.3304H36.3563C36.5508 32.3275 36.7364 32.2483 36.8729 32.1098C37.0094 31.9712 37.086 31.7846 37.086 31.59C37.086 31.3955 37.0095 31.2089 36.8729 31.0703C36.7364 30.9318 36.5509 30.8525 36.3564 30.8497ZM36.3564 27.8216H25.2436C25.0491 27.8244 24.8635 27.9036 24.7269 28.0421C24.5903 28.1806 24.5138 28.3674 24.5138 28.5619C24.5138 28.7565 24.5903 28.9432 24.7269 29.0817C24.8635 29.2203 25.0491 29.2995 25.2436 29.3023H36.3564C36.5509 29.2995 36.7365 29.2203 36.8731 29.0817C37.0097 28.9432 37.0862 28.7565 37.0862 28.5619C37.0862 28.3674 37.0097 28.1807 36.8731 28.0421C36.7365 27.9036 36.5509 27.8244 36.3564 27.8216ZM36.3564 24.7935H23.8592C23.6651 24.797 23.4802 24.8765 23.3442 25.015C23.2082 25.1534 23.132 25.3397 23.132 25.5338C23.132 25.7279 23.2082 25.9142 23.3442 26.0527C23.4802 26.1911 23.6651 26.2707 23.8591 26.2742H36.3564C36.5509 26.2714 36.7364 26.1921 36.873 26.0536C37.0095 25.915 37.086 25.7283 37.086 25.5338C37.086 25.3393 37.0095 25.1526 36.873 25.0141C36.7364 24.8756 36.5509 24.7963 36.3564 24.7935ZM36.3564 21.7654H22.5709C22.377 21.769 22.1921 21.8486 22.0562 21.9871C21.9203 22.1255 21.8442 22.3118 21.8442 22.5058C21.8441 22.6998 21.9203 22.886 22.0562 23.0245C22.1921 23.163 22.3769 23.2426 22.5709 23.2462H36.3564C36.5509 23.2433 36.7364 23.1641 36.873 23.0255C37.0095 22.887 37.086 22.7003 37.086 22.5058C37.086 22.3113 37.0095 22.1246 36.873 21.9861C36.7364 21.8475 36.5509 21.7683 36.3564 21.7654ZM36.3564 18.7373H20.2018C20.0073 18.7402 19.8217 18.8194 19.6852 18.958C19.5487 19.0965 19.4721 19.2832 19.4721 19.4777C19.4721 19.6722 19.5487 19.8589 19.6852 19.9974C19.8217 20.136 20.0073 20.2152 20.2017 20.2181H36.3564C36.5509 20.2152 36.7364 20.136 36.873 19.9974C37.0095 19.8589 37.086 19.6722 37.086 19.4777C37.086 19.2832 37.0095 19.0965 36.873 18.958C36.7364 18.8194 36.5509 18.7402 36.3564 18.7373ZM36.3564 15.7093H20.2018C20.0073 15.7121 19.8217 15.7914 19.6852 15.9299C19.5487 16.0685 19.4721 16.2551 19.4721 16.4496C19.4721 16.6441 19.5487 16.8308 19.6852 16.9694C19.8217 17.1079 20.0073 17.1872 20.2017 17.19H36.3564C36.5509 17.1872 36.7364 17.1079 36.873 16.9694C37.0095 16.8309 37.086 16.6442 37.086 16.4497C37.086 16.2552 37.0095 16.0685 36.873 15.9299C36.7364 15.7914 36.5509 15.7121 36.3564 15.7093ZM36.3564 11.6743H28.2791C28.0846 11.6772 27.8991 11.7564 27.7626 11.895C27.626 12.0335 27.5495 12.2202 27.5495 12.4147C27.5495 12.6092 27.626 12.7959 27.7626 12.9344C27.8991 13.073 28.0846 13.1522 28.2791 13.155H36.3564C36.5509 13.1522 36.7364 13.073 36.873 12.9344C37.0095 12.7959 37.086 12.6092 37.086 12.4147C37.086 12.2202 37.0095 12.0335 36.873 11.895C36.7364 11.7564 36.5509 11.6772 36.3564 11.6743ZM36.3564 8.64624H28.2791C28.0846 8.64908 27.8991 8.72833 27.7626 8.86687C27.626 9.0054 27.5495 9.19209 27.5495 9.3866C27.5495 9.5811 27.626 9.76779 27.7626 9.90633C27.8991 10.0449 28.0846 10.1241 28.2791 10.127H36.3564C36.5509 10.1241 36.7364 10.0449 36.873 9.90633C37.0095 9.76779 37.086 9.5811 37.086 9.3866C37.086 9.19209 37.0095 9.0054 36.873 8.86687C36.7364 8.72833 36.5509 8.64908 36.3564 8.64624ZM19.3578 30.1537L16.5444 31.6345L19.9648 34.7143L19.3578 30.1537Z" fill="#2563EB"/>
</svg>
