<svg width="40" height="40" viewBox="0 0 40 40" fill="none" xmlns="http://www.w3.org/2000/svg">
<path fill-rule="evenodd" clip-rule="evenodd" d="M29.3752 11.8748C26.959 11.8748 25.0002 9.916 25.0002 7.49976C25.0002 5.08351 26.959 3.12476 29.3752 3.12476C31.7915 3.12476 33.7502 5.08351 33.7502 7.49976C33.7502 9.916 31.7915 11.8748 29.3752 11.8748ZM10.6252 11.8748C8.209 11.8748 6.25024 9.916 6.25024 7.49976C6.25024 5.08351 8.209 3.12476 10.6252 3.12476C13.0415 3.12476 15.0002 5.08351 15.0002 7.49976C15.0002 9.916 13.0415 11.8748 10.6252 11.8748ZM20.0002 21.875C17.2387 21.875 15 19.6363 15 16.8748C15 14.1132 17.2387 11.8745 20.0002 11.8745C22.7618 11.8745 25.0005 14.1132 25.0005 16.8748C25.0005 19.6363 22.7618 21.875 20.0002 21.875ZM30.0013 31.8739C30.0013 27.7314 26.6426 24.374 22.5005 24.374H17.5009C13.3588 24.374 10.0001 27.7314 10.0001 31.8739V33.1239C10.0001 34.1181 10.3959 35.0723 11.0986 35.7756C11.8026 36.4789 12.7557 36.8739 13.7505 36.8739H26.2509C27.2457 36.8739 28.1988 36.4789 28.9028 35.7756C29.6055 35.0723 30.0013 34.1181 30.0013 33.1239V31.8739ZM8.83837 26.8748H5.62524C4.63087 26.8748 3.67712 26.4798 2.97337 25.7766C2.27024 25.0729 1.87524 24.1191 1.87524 23.1248V21.8748C1.87524 19.8854 2.66524 17.9779 4.07212 16.5716C5.47837 15.1648 7.38587 14.3748 9.37524 14.3748H11.8752C12.2209 14.3748 12.5646 14.3985 12.9034 14.4454C12.6421 15.2073 12.5002 16.0248 12.5002 16.8748C12.5002 18.9823 13.3715 20.8885 14.7734 22.251C12.2459 22.966 10.1252 24.6491 8.83837 26.8748ZM27.0971 14.4454C27.4359 14.3985 27.7796 14.3748 28.1252 14.3748H30.6252C32.6146 14.3748 34.5221 15.1648 35.9284 16.5716C37.3352 17.9779 38.1252 19.8854 38.1252 21.8748V23.1248C38.1252 24.1191 37.7302 25.0729 37.0271 25.7766C36.3234 26.4798 35.3696 26.8748 34.3752 26.8748H31.1621C29.8752 24.6491 27.7546 22.966 25.2271 22.251C26.629 20.8885 27.5002 18.9823 27.5002 16.8748C27.5002 16.0248 27.3584 15.2073 27.0971 14.4454Z" fill="#1D4ED8"/>
</svg>
