<svg width="250" height="250" viewBox="0 0 250 250" fill="none" xmlns="http://www.w3.org/2000/svg">
<g clip-path="url(#clip0_3370_17549)">
<path d="M196.363 170.278C235.247 133.03 234.817 72.231 195.405 34.4788C155.992 -3.27347 92.5202 -3.68254 53.6369 33.5651C14.7536 70.8127 15.1828 131.612 54.5957 169.364C94.0085 207.116 157.48 207.526 196.363 170.278Z" fill="url(#paint0_linear_3370_17549)"/>
<path d="M235.392 165.937C232.91 163.559 230.454 160.493 228.076 157.515C225.463 154.248 222.994 151.157 220.851 149.442C216.788 146.176 215.651 144.461 213.247 140.532C212.515 139.33 205.996 128.442 203.004 115.714C200.574 105.352 190.096 91.5854 185.066 84.9775C184.073 83.6759 183.315 82.6872 182.897 82.074C181.982 80.7474 181.016 80.0465 180.088 80.0465C178.951 80.0465 178.167 81.0603 177.945 81.3731C177.501 82.1991 179.5 87.4554 180.807 90.9221C181.852 93.6879 182.936 96.5413 183.472 98.5938C184.269 101.61 184.282 103.199 183.485 103.9C182.858 104.463 182.035 104.201 181.682 104.088C181.185 103.938 181.094 103.9 176.743 93.7505C172.497 83.8511 166.095 68.8957 162.607 64.1525C160.53 61.3241 159.811 61.6244 159.798 61.6369C158.936 62.0374 158.988 66.1173 159.432 67.4689L159.824 68.6829C165.207 85.1402 171.726 105.565 172.157 109.432C172.223 109.982 172.406 111.634 171.178 111.86C169.113 112.248 165.494 106.478 165.024 104.789C164.201 101.823 149.764 70.022 147.909 68.6203C147.647 68.4827 147.399 68.4201 147.321 68.4701C147.203 68.5452 146.628 69.1084 147.073 72.8254C147.229 74.2145 149.542 82.2742 151.998 90.7969C159.053 115.414 159.889 119.093 159.262 119.782C159.119 119.944 158.857 120.032 158.635 120.02C157.903 119.932 157.525 119.406 151.162 104.639C146.393 93.5753 138.489 75.2283 136.176 73.6764C135.131 76.4297 141.807 102.836 148.771 126.715C148.862 127.04 148.68 127.378 148.353 127.478C148.013 127.591 147.66 127.416 147.543 127.116C141.089 111.034 131.146 86.642 130.192 85.3529C129.827 84.8523 129.448 84.577 129.134 84.577C129.095 84.577 129.056 84.577 129.03 84.5895C128.599 84.6896 128.011 85.4906 127.762 87.4179C127.344 90.7218 134.164 133.023 142.957 165.862C151.332 197.1 178.324 209.815 178.599 209.927L223.516 233.606L247.935 177.151L235.392 165.937Z" fill="#FBFAF8"/>
<path d="M150.001 32.4312L152.389 36.592L152.461 36.718L152.589 36.7856L156.882 39.0454L152.59 41.2943L152.461 41.3619L152.389 41.4883L150.001 45.6491L147.625 41.4892L147.553 41.3622L147.423 41.2943L143.132 39.0454L147.424 36.7856L147.553 36.7177L147.625 36.5912L150.001 32.4312Z" fill="#001E52" stroke="#001E52"/>
<path d="M173.973 1.25195L178.416 9.03629L186.542 13.2914L178.416 17.5465L173.973 25.3183L169.531 17.5465L161.418 13.2914L169.531 9.03629L173.973 1.25195Z" fill="#001E52" stroke="#001E52" stroke-width="2" stroke-miterlimit="10" stroke-linecap="round" stroke-linejoin="round"/>
<path d="M223.831 234.469L178.312 210.465C178.312 210.465 150.875 197.887 142.318 165.986C133.773 134.086 126.64 91.0339 127.11 87.3169C127.58 83.6 129.383 83.1369 130.729 84.9766C132.075 86.8038 148.158 126.877 148.158 126.877C148.158 126.877 132.911 74.6768 135.916 73.0123C138.921 71.3478 157.342 119.23 158.727 119.393C160.112 119.556 146.851 76.4664 146.433 72.8871C146.015 69.3203 146.302 67.005 148.262 68.0688C150.222 69.1326 164.946 102.01 165.665 104.613C166.383 107.216 172.093 114.575 171.518 109.481C170.943 104.387 159.315 69.1952 158.806 67.6183C158.309 66.0539 157.617 56.2546 163.143 63.7637C168.657 71.2727 181.056 103.211 181.892 103.474C182.728 103.737 184.27 104.087 182.845 98.7306C181.421 93.3742 176.326 82.5612 177.397 81.0094C178.469 79.4575 180.925 78.0683 183.433 81.7102C185.942 85.3521 200.679 102.986 203.632 115.563C206.585 128.141 212.973 138.854 213.797 140.205C216.109 143.997 217.194 145.687 221.257 148.953C225.438 152.307 230.677 160.542 235.824 165.473L248.693 176.975M143.232 132.546C143.232 132.546 177.097 110.595 181.774 109.093" stroke="#001E52" stroke-width="2" stroke-miterlimit="10" stroke-linecap="round" stroke-linejoin="round"/>
<path d="M185.942 115.075C185.942 115.075 186.151 119.405 177.606 135.037C171.871 145.512 177.606 154.998 188.542 164.973M150 143.021C150 143.021 162.503 136.038 176.039 160.98" stroke="#001E52" stroke-width="2" stroke-miterlimit="10" stroke-linecap="round" stroke-linejoin="round"/>
<path d="M86.4375 101.009C89.9389 104.263 106.688 125.013 110.307 134.887" stroke="#001E52" stroke-width="2" stroke-miterlimit="10" stroke-linecap="round" stroke-linejoin="round"/>
<path d="M1.30574 211.216C1.30574 211.216 38.6718 192.181 45.4003 174.672C52.1288 157.164 58.4785 131.345 54.8072 117.066C51.8806 105.69 48.0525 95.2771 48.0525 95.2771C48.0525 95.2771 52.8997 93.8754 59.5759 98.7437C64.4492 102.311 69.9757 109.807 69.6099 113.687C69.2441 117.566 82.6488 92.2484 84.1905 88.8569C85.0528 86.9796 106.192 41.5877 106.192 41.5877L107.486 41.8004C109.863 42.1884 111.915 43.7402 112.45 45.9929L112.881 47.4447C112.881 47.4447 118.173 37.1824 118.774 37.0697C121.008 36.6192 125.215 38.6341 125.999 40.5364C127.436 44.0531 124.718 48.6586 124.718 48.6586C124.718 48.6586 125.868 49.397 127.54 51.1867C129.788 53.577 130.023 57.3816 128.35 66.5301C126.966 74.0766 125.149 78.3443 125.149 78.3443C125.149 78.3443 130.049 74.79 130.833 80.9474C131.382 85.2525 129.984 102.849 127.357 111.159C124.744 119.469 121.217 141.082 115.181 155.362C109.145 169.641 102.286 188.289 97.2686 193.132C92.2516 197.975 79.0037 208.576 69.8059 212.343C60.6081 216.11 31.2378 246.183 29.8398 248.736C28.4419 251.289 -6.20667 249.8 1.89367 209.952" fill="#FBFAF8"/>
<path d="M1.30664 211.216C1.30664 211.216 38.6727 192.181 45.4012 174.672C52.1297 157.164 58.4794 131.345 54.8081 117.066C51.8815 105.69 48.0534 95.2771 48.0534 95.2771C48.0534 95.2771 52.9006 93.8754 59.5768 98.7437C64.4501 102.311 69.9766 109.807 69.6108 113.687C69.245 117.566 82.6497 92.2484 84.1914 88.8569C85.0537 86.9796 106.193 41.5877 106.193 41.5877L107.486 41.8004C109.864 42.1884 111.915 43.7402 112.451 45.9929L112.882 47.4447C112.882 47.4447 118.174 37.1824 118.775 37.0697C121.009 36.6192 125.216 38.6341 126 40.5364C127.437 44.0531 124.719 48.6586 124.719 48.6586C124.719 48.6586 125.869 49.397 127.541 51.1867C129.788 53.577 130.024 57.3816 128.351 66.5301C126.966 74.0766 125.15 78.3443 125.15 78.3443C125.15 78.3443 130.05 74.79 130.834 80.9474C131.382 85.2526 129.984 102.849 127.358 111.159C124.745 119.469 121.218 141.082 115.182 155.362C109.146 169.641 102.287 188.289 97.2695 193.132C92.2525 197.975 79.0046 208.576 69.8068 212.343C60.609 216.11 31.2387 246.183 29.8407 248.736M65.4561 122.422C65.4561 122.422 68.0038 117.516 69.5847 113.699" stroke="#001E52" stroke-width="2" stroke-miterlimit="10" stroke-linecap="round" stroke-linejoin="round"/>
<path d="M89.416 104.05L102.011 74.3643L112.855 47.457" stroke="#001E52" stroke-width="2" stroke-miterlimit="10" stroke-linecap="round" stroke-linejoin="round"/>
<path d="M96.3027 112.898L110.374 79.9463L122.485 48.5586C122.485 48.5586 125.647 49.1343 127.528 51.1868M104.677 123.273C104.677 123.273 123.478 81.836 124.837 79.721C126.209 77.5684 128.456 77.9439 128.456 77.9439" stroke="#001E52" stroke-width="2" stroke-miterlimit="10" stroke-linecap="round" stroke-linejoin="round"/>
</g>
<defs>
<linearGradient id="paint0_linear_3370_17549" x1="-16.7676" y1="101.008" x2="266.623" y2="108.398" gradientUnits="userSpaceOnUse">
<stop stop-color="#FF8909"/>
<stop offset="1" stop-color="#FFC565"/>
</linearGradient>
<clipPath id="clip0_3370_17549">
<rect width="250" height="250" fill="white"/>
</clipPath>
</defs>
</svg>
