<svg width="72" height="73" viewBox="0 0 72 73" fill="none" xmlns="http://www.w3.org/2000/svg">
<rect y="0.5" width="72" height="72" rx="36" fill="white"/>
<path d="M48.4992 24.2752C48.255 24.2717 48.0217 24.173 47.8492 24.0002C47.7607 23.914 47.6904 23.811 47.6424 23.6972C47.5944 23.5834 47.5697 23.4612 47.5697 23.3377C47.5697 23.2142 47.5944 23.092 47.6424 22.9782C47.6904 22.8644 47.7607 22.7614 47.8492 22.6752L49.3367 21.1877C49.4229 21.0992 49.5259 21.029 49.6397 20.981C49.7534 20.933 49.8757 20.9082 49.9992 20.9082C50.1227 20.9082 50.2449 20.933 50.3587 20.981C50.4725 21.029 50.5755 21.0992 50.6617 21.1877C50.8372 21.3635 50.9359 21.6018 50.9359 21.8502C50.9359 22.0986 50.8372 22.3369 50.6617 22.5127L49.1742 24.0002C48.9925 24.1746 48.751 24.273 48.4992 24.2752ZM23.4992 24.2752C23.2473 24.273 23.0059 24.1746 22.8242 24.0002L21.3367 22.5127C21.1611 22.3369 21.0625 22.0986 21.0625 21.8502C21.0625 21.6018 21.1611 21.3635 21.3367 21.1877C21.4229 21.0992 21.5259 21.029 21.6397 20.981C21.7534 20.933 21.8757 20.9082 21.9992 20.9082C22.1227 20.9082 22.2449 20.933 22.3587 20.981C22.4725 21.029 22.5755 21.0992 22.6617 21.1877L24.1492 22.6752C24.2376 22.7614 24.3079 22.8644 24.3559 22.9782C24.4039 23.092 24.4286 23.2142 24.4286 23.3377C24.4286 23.4612 24.4039 23.5834 24.3559 23.6972C24.3079 23.811 24.2376 23.914 24.1492 24.0002C23.9766 24.173 23.7434 24.2717 23.4992 24.2752ZM35.9992 23.1252C35.7515 23.122 35.515 23.0221 35.3398 22.847C35.1647 22.6719 35.0649 22.4353 35.0617 22.1877V20.0752C35.0617 19.8266 35.1604 19.5881 35.3363 19.4123C35.5121 19.2365 35.7505 19.1377 35.9992 19.1377C36.2478 19.1377 36.4863 19.2365 36.6621 19.4123C36.8379 19.5881 36.9367 19.8266 36.9367 20.0752V22.1877C36.9334 22.4353 36.8336 22.6719 36.6585 22.847C36.4834 23.0221 36.2468 23.122 35.9992 23.1252Z" fill="#1B1B1B"/>
<path d="M39.6133 26.2998L41.2633 33.2623H50.5633C50.5809 33.0369 50.5332 32.8112 50.4258 32.6123L47.6008 26.9873C47.4969 26.7812 47.338 26.6078 47.1416 26.4865C46.9452 26.3651 46.7191 26.3005 46.4883 26.2998H39.6133Z" fill="#5CC5F9"/>
<path d="M30.7383 33.2623H41.2633L39.6133 26.2998H32.3883L30.7383 33.2623Z" fill="#1165EF"/>
<path d="M21.4372 33.2623H30.7372L32.3872 26.2998H25.5122C25.2813 26.3005 25.0552 26.3651 24.8589 26.4865C24.6625 26.6078 24.5036 26.7812 24.3997 26.9873L21.5747 32.6123C21.4673 32.8112 21.4195 33.0369 21.4372 33.2623Z" fill="#5CC5F9"/>
<path d="M50.5625 33.2627C50.5468 33.482 50.4735 33.6933 50.35 33.8752L37.025 53.3127C36.9225 53.4692 36.7838 53.5986 36.6205 53.69C36.4573 53.7814 36.2745 53.8321 36.0875 53.8377C36.06 53.8501 36.0302 53.8565 36 53.8565C35.9698 53.8565 35.94 53.8501 35.9125 53.8377C35.7255 53.8321 35.5427 53.7814 35.3795 53.69C35.2162 53.5986 35.0775 53.4692 34.975 53.3127L21.65 33.8752C21.5265 33.6933 21.4532 33.482 21.4375 33.2627H50.5625Z" fill="#1165EF"/>
<path d="M30.7383 33.2627L35.7383 53.6252C35.7567 53.6871 35.7947 53.7414 35.8465 53.78C35.8983 53.8186 35.9612 53.8395 36.0258 53.8395C36.0904 53.8395 36.1533 53.8186 36.2051 53.78C36.2569 53.7414 36.2948 53.6871 36.3133 53.6252L41.3133 33.2627H30.7383Z" fill="#5CC5F9"/>
</svg>
