<svg width="76" height="75" viewBox="0 0 76 75" fill="none" xmlns="http://www.w3.org/2000/svg">
<g filter="url(#filter0_d_4856_2224)">
<rect x="6" width="64" height="64" rx="32" fill="white"/>
<rect x="6.22222" y="0.222222" width="63.5556" height="63.5556" rx="31.7778" stroke="#FFC501" stroke-width="0.444444"/>
<path d="M49.1096 21.134C48.8925 21.1309 48.6852 21.0432 48.5318 20.8896C48.4532 20.813 48.3907 20.7214 48.348 20.6203C48.3054 20.5191 48.2834 20.4105 48.2834 20.3007C48.2834 20.1909 48.3054 20.0823 48.348 19.9811C48.3907 19.88 48.4532 19.7884 48.5318 19.7118L49.854 18.3896C49.9306 18.311 50.0222 18.2485 50.1234 18.2058C50.2245 18.1632 50.3332 18.1412 50.4429 18.1412C50.5527 18.1412 50.6614 18.1632 50.7625 18.2058C50.8636 18.2485 50.9552 18.311 51.0318 18.3896C51.1879 18.5459 51.2755 18.7577 51.2755 18.9785C51.2755 19.1993 51.1879 19.4111 51.0318 19.5674L49.7096 20.8896C49.5481 21.0446 49.3334 21.1321 49.1096 21.134ZM26.8874 21.134C26.6635 21.1321 26.4489 21.0446 26.2874 20.8896L24.9651 19.5674C24.8091 19.4111 24.7214 19.1993 24.7214 18.9785C24.7214 18.7577 24.8091 18.5459 24.9651 18.3896C25.0418 18.311 25.1333 18.2485 25.2345 18.2058C25.3356 18.1632 25.4443 18.1412 25.554 18.1412C25.6638 18.1412 25.7725 18.1632 25.8736 18.2058C25.9747 18.2485 26.0663 18.311 26.1429 18.3896L27.4651 19.7118C27.5438 19.7884 27.6062 19.88 27.6489 19.9811C27.6916 20.0823 27.7136 20.1909 27.7136 20.3007C27.7136 20.4105 27.6916 20.5191 27.6489 20.6203C27.6062 20.7214 27.5438 20.813 27.4651 20.8896C27.3117 21.0432 27.1045 21.1309 26.8874 21.134ZM37.9985 20.1118C37.7784 20.1089 37.5681 20.0202 37.4124 19.8646C37.2567 19.7089 37.168 19.4986 37.1651 19.2785V17.4007C37.1651 17.1797 37.2529 16.9677 37.4092 16.8115C37.5655 16.6552 37.7775 16.5674 37.9985 16.5674C38.2195 16.5674 38.4315 16.6552 38.5877 16.8115C38.744 16.9677 38.8318 17.1797 38.8318 17.4007V19.2785C38.8289 19.4986 38.7402 19.7089 38.5846 19.8646C38.4289 20.0202 38.2186 20.1089 37.9985 20.1118Z" fill="#231232"/>
<path d="M41.2109 22.9375L42.6776 29.1264H50.9443C50.96 28.926 50.9175 28.7254 50.8221 28.5486L48.3109 23.5486C48.2186 23.3654 48.0773 23.2113 47.9028 23.1034C47.7282 22.9955 47.5272 22.9381 47.322 22.9375H41.2109Z" fill="#FFC501"/>
<path d="M33.3229 29.1264H42.6784L41.2118 22.9375H34.7895L33.3229 29.1264Z" fill="#DF4425"/>
<path d="M25.0553 29.1264H33.322L34.7886 22.9375H28.6775C28.4723 22.9381 28.2713 22.9955 28.0968 23.1034C27.9222 23.2113 27.781 23.3654 27.6886 23.5486L25.1775 28.5486C25.0821 28.7254 25.0396 28.926 25.0553 29.1264Z" fill="#FFC501"/>
<path d="M50.9436 29.125C50.9296 29.3199 50.8644 29.5077 50.7547 29.6694L38.9102 46.9472C38.8191 47.0863 38.6958 47.2014 38.5507 47.2826C38.4057 47.3639 38.2431 47.4089 38.0769 47.4139C38.0525 47.4249 38.026 47.4306 37.9991 47.4306C37.9723 47.4306 37.9458 47.4249 37.9214 47.4139C37.7552 47.4089 37.5926 47.3639 37.4475 47.2826C37.3025 47.2014 37.1791 47.0863 37.088 46.9472L25.2436 29.6694C25.1338 29.5077 25.0687 29.3199 25.0547 29.125H50.9436Z" fill="#DF4425"/>
<path d="M33.3229 29.125L37.7673 47.225C37.7837 47.28 37.8175 47.3283 37.8635 47.3626C37.9095 47.397 37.9654 47.4155 38.0229 47.4155C38.0803 47.4155 38.1362 47.397 38.1822 47.3626C38.2283 47.3283 38.262 47.28 38.2784 47.225L42.7229 29.125H33.3229Z" fill="#FFC501"/>
</g>
<defs>
<filter id="filter0_d_4856_2224" x="0.666667" y="0" width="74.6667" height="74.6667" filterUnits="userSpaceOnUse" color-interpolation-filters="sRGB">
<feFlood flood-opacity="0" result="BackgroundImageFix"/>
<feColorMatrix in="SourceAlpha" type="matrix" values="0 0 0 0 0 0 0 0 0 0 0 0 0 0 0 0 0 0 127 0" result="hardAlpha"/>
<feOffset dy="5.33333"/>
<feGaussianBlur stdDeviation="2.66667"/>
<feComposite in2="hardAlpha" operator="out"/>
<feColorMatrix type="matrix" values="0 0 0 0 0 0 0 0 0 0 0 0 0 0 0 0 0 0 0.25 0"/>
<feBlend mode="normal" in2="BackgroundImageFix" result="effect1_dropShadow_4856_2224"/>
<feBlend mode="normal" in="SourceGraphic" in2="effect1_dropShadow_4856_2224" result="shape"/>
</filter>
</defs>
</svg>
