<svg width="45" height="44" viewBox="0 0 45 44" fill="none" xmlns="http://www.w3.org/2000/svg">
<g clip-path="url(#clip0_4670_1245)">
<path d="M37.7334 0H6.93337C3.28829 0 0.333374 2.95492 0.333374 6.6V37.4C0.333374 41.0451 3.28829 44 6.93337 44H37.7334C41.3785 44 44.3334 41.0451 44.3334 37.4V6.6C44.3334 2.95492 41.3785 0 37.7334 0Z" fill="#0077B5"/>
<path d="M12.5365 15.0391C14.2926 15.0391 15.7162 13.6155 15.7162 11.8594C15.7162 10.1033 14.2926 8.67969 12.5365 8.67969C10.7804 8.67969 9.35681 10.1033 9.35681 11.8594C9.35681 13.6155 10.7804 15.0391 12.5365 15.0391Z" fill="white"/>
<path d="M21.3021 16.6719V33.6875V16.6719ZM12.5365 16.6719V33.6875V16.6719Z" fill="white"/>
<path d="M21.3021 16.6719V33.6875M12.5365 16.6719V33.6875" stroke="white" stroke-width="6.1875"/>
<path d="M24.0521 24.2344C24.0521 22.5156 25.1693 20.7969 27.1459 20.7969C29.2084 20.7969 29.9818 22.3438 29.9818 24.6641V33.6875H35.6537V23.9766C35.6537 18.7344 32.9037 16.3281 29.1224 16.3281C26.2006 16.3281 24.7396 17.9609 24.0521 19.0781" fill="white"/>
</g>
<defs>
<clipPath id="clip0_4670_1245">
<rect width="44" height="44" fill="white" transform="translate(0.333374)"/>
</clipPath>
</defs>
</svg>
