<svg width="22" height="20" viewBox="0 0 22 20" fill="none" xmlns="http://www.w3.org/2000/svg">
<path d="M19.1641 5.165C18.2506 4.5175 17.1761 4.179 16.0501 4.179H14.8736C14.6791 4.179 14.5201 4.0215 14.5201 3.8285V0.297C14.5201 0.1335 14.3856 0 14.2176 0C14.2026 0 14.1876 0 14.1726 0.003C13.0136 0.1635 11.8641 0.4335 10.7561 0.802C8.7471 1.473 6.8756 2.468 5.1901 3.763C4.3636 4.3985 3.5851 5.1055 2.8726 5.866C2.1301 6.662 1.3696 7.5205 0.971102 8.4975C0.710602 9.133 0.579102 9.8075 0.579102 10.4995C0.579102 12.216 1.4206 13.838 2.8336 14.8355C3.7436 15.48 4.8216 15.8215 5.9446 15.8215H7.1241C7.3156 15.8215 7.4746 15.979 7.4746 16.172V19.7035C7.4746 19.867 7.6121 20.0005 7.7801 20.0005C7.7951 20.0005 7.8101 19.9975 7.8251 19.9975C9.7416 19.73 11.5976 19.178 13.3401 18.352C15.2441 17.452 16.9751 16.252 18.4871 14.782C19.9361 13.3715 21.4186 11.6425 21.4186 9.5015C21.4186 7.785 20.5741 6.1625 19.1641 5.165ZM16.9186 9.902C15.6011 11.494 14.0021 12.777 12.1696 13.7245C11.4391 14.102 10.6756 14.4195 9.8941 14.672C9.8341 14.693 9.7711 14.7015 9.7086 14.7015C9.3791 14.7015 9.1096 14.4345 9.1096 14.1045V11.666C9.1096 11.3365 8.8401 11.072 8.5106 11.072H5.5406C5.3071 11.072 5.0976 10.9415 4.9986 10.7305C4.8966 10.5195 4.9296 10.276 5.0796 10.095C6.3941 8.506 7.9931 7.22 9.8281 6.2755C10.5556 5.8985 11.3221 5.5775 12.1036 5.325C12.1636 5.307 12.2236 5.2955 12.2861 5.2955C12.6156 5.2955 12.8851 5.563 12.8851 5.8925V8.334C12.8851 8.6605 13.1546 8.928 13.4841 8.928H16.4571C16.6906 8.928 16.8971 9.0585 16.9961 9.2665C17.0981 9.4775 17.0686 9.721 16.9186 9.902Z" fill="#DF4425"/>
</svg>
