<svg width="211" height="38" viewBox="0 0 211 38" fill="none" xmlns="http://www.w3.org/2000/svg">
<g clip-path="url(#clip0_5259_5045)">
<path d="M47.1946 19.0369C47.1946 13.285 51.2214 9.33301 56.9733 9.33301C62.7252 9.33301 66.6038 13.1773 66.6038 19.0027V27.9036H62.6112V24.3506C61.5118 27.022 59.0582 28.3773 56.2032 28.3773C51.8066 28.3773 47.1934 25.2284 47.1934 19.0382L47.1946 19.0369ZM62.2464 18.8545C62.2464 15.6701 60.1222 13.399 56.9378 13.399C53.7534 13.399 51.59 15.6714 51.59 18.8545C51.59 22.0377 53.7484 24.3101 56.9378 24.3101C60.1273 24.3101 62.2464 22.0377 62.2464 18.8545Z" fill="white"/>
<path d="M68.8408 19.0027C68.8408 13.1431 72.7941 9.33301 78.4713 9.33301C84.1485 9.33301 88.25 13.2863 88.25 19.0369C88.25 25.2271 83.6368 28.3761 79.2402 28.3761C76.6384 28.3761 74.4788 27.2766 73.1982 25.2613V35.6265H68.8408V19.0015V19.0027ZM83.8572 18.8545C83.8572 15.6701 81.6988 13.399 78.5093 13.399C75.3198 13.399 73.2007 15.6714 73.2007 18.8545C73.2007 22.0377 75.3249 24.3101 78.5093 24.3101C81.6937 24.3101 83.8572 22.0377 83.8572 18.8545Z" fill="white"/>
<path d="M89.6221 19.0027C89.6221 13.1431 93.5753 9.33301 99.2525 9.33301C104.93 9.33301 109.031 13.2863 109.031 19.0369C109.031 25.2271 104.418 28.3761 100.021 28.3761C97.4197 28.3761 95.26 27.2766 93.9794 25.2613V35.6265H89.6221V19.0015V19.0027ZM104.636 18.8545C104.636 15.6701 102.477 13.399 99.288 13.399C96.0985 13.399 93.9794 15.6714 93.9794 18.8545C93.9794 22.0377 96.1036 24.3101 99.288 24.3101C102.472 24.3101 104.636 22.0377 104.636 18.8545Z" fill="white"/>
<path d="M110.947 1.90039H115.305V27.9038H110.947V1.90039Z" fill="white"/>
<path d="M122.458 29.8757C123.193 31.5616 124.617 32.3305 126.816 32.3305C129.782 32.3305 131.468 30.9017 131.468 27.3867V25.1143C130.369 27.0903 128.466 28.1556 126.086 28.1556C121.911 28.1556 117.954 25.4449 117.954 18.9988V9.80664H122.311V18.9988C122.311 22.4391 124.141 24.0896 126.89 24.0896C129.64 24.0896 131.469 22.3694 131.469 18.9988V9.80664H135.827V27.274C135.827 33.5731 131.834 36.1014 126.817 36.1014C122.608 36.1014 119.128 34.1596 118.099 29.877H122.46L122.458 29.8757Z" fill="white"/>
<path d="M138.444 19.0027C138.444 13.1431 142.398 9.33301 148.075 9.33301C153.752 9.33301 157.853 13.2863 157.853 19.0369C157.853 25.2271 153.24 28.3761 148.844 28.3761C146.242 28.3761 144.082 27.2766 142.802 25.2613V35.6265H138.444V19.0015V19.0027ZM153.462 18.8545C153.462 15.6701 151.304 13.399 148.114 13.399C144.925 13.399 142.805 15.6714 142.805 18.8545C142.805 22.0377 144.93 24.3101 148.114 24.3101C151.298 24.3101 153.462 22.0377 153.462 18.8545Z" fill="white"/>
<path d="M158.635 19.0369C158.635 13.285 162.661 9.33301 168.413 9.33301C174.165 9.33301 178.044 13.1773 178.044 19.0027V27.9036H174.051V24.3506C172.953 27.022 170.498 28.3773 167.645 28.3773C163.248 28.3773 158.635 25.2284 158.635 19.0382V19.0369ZM173.687 18.8545C173.687 15.6701 171.562 13.399 168.378 13.399C165.194 13.399 163.03 15.6714 163.03 18.8545C163.03 22.0377 165.189 24.3101 168.378 24.3101C171.567 24.3101 173.687 22.0377 173.687 18.8545Z" fill="white"/>
<path d="M179.408 22.5509H183.805C183.839 23.758 184.904 24.5661 187.028 24.5661C189.261 24.5661 190.213 23.6491 190.213 22.5509C190.213 21.1613 188.601 20.9789 186.66 20.718C183.876 20.3532 179.774 19.8757 179.774 15.4449C179.774 11.7487 182.594 9.32812 186.95 9.32812C191.306 9.32812 194.091 11.8171 194.2 15.0053H189.878C189.769 13.9059 188.745 13.137 187.019 13.137C185.117 13.137 184.161 14.0541 184.161 15.113C184.161 16.5025 185.807 16.7242 187.749 16.9813C190.165 17.3119 194.595 17.7844 194.595 22.2899C194.595 25.9519 191.629 28.3674 187.016 28.3674C182.402 28.3674 179.509 25.9126 179.4 22.5471L179.409 22.5509H179.408Z" fill="white"/>
<path d="M195.398 22.5509H199.795C199.829 23.758 200.894 24.5661 203.018 24.5661C205.252 24.5661 206.203 23.6491 206.203 22.5509C206.203 21.1613 204.592 20.9789 202.65 20.718C199.866 20.3532 195.764 19.8757 195.764 15.4449C195.764 11.7487 198.584 9.32812 202.94 9.32812C207.296 9.32812 210.081 11.8171 210.19 15.0053H205.868C205.76 13.9059 204.735 13.137 203.01 13.137C201.107 13.137 200.151 14.0541 200.151 15.113C200.151 16.5025 201.797 16.7242 203.739 16.9813C206.155 17.3119 210.586 17.7844 210.586 22.2899C210.586 25.9519 207.619 28.3674 203.006 28.3674C198.393 28.3674 195.5 25.9126 195.391 22.5471L195.399 22.5509H195.398Z" fill="white"/>
<path d="M35.3109 9.81287C33.5755 8.58293 31.5337 7.93947 29.3943 7.93947H27.1586C26.7887 7.93947 26.4873 7.64053 26.4873 7.2732V0.564933C26.4873 0.2546 26.2314 0 25.9122 0C25.8843 0 25.8552 0 25.8273 0.00506667C23.6259 0.310333 21.4409 0.823333 19.3357 1.52253C15.5179 2.79807 11.9624 4.68793 8.76027 7.14907C7.1896 8.3562 5.7114 9.70013 4.35733 11.1441C2.94627 12.6565 1.501 14.2867 0.7448 16.1437C0.249533 17.3508 0 18.6327 0 19.9475C0 23.2091 1.59853 26.2897 4.28387 28.1859C6.01287 29.4107 8.06107 30.0593 10.1941 30.0593H12.4361C12.7997 30.0593 13.1011 30.3582 13.1011 30.7255V37.4351C13.1011 37.7454 13.3633 37.9987 13.6813 37.9987C13.7091 37.9987 13.7383 37.9937 13.7661 37.9937C17.4065 37.4857 20.9342 36.4357 24.2453 34.8675C27.8629 33.1575 31.1511 30.8775 34.0239 28.0845C36.7777 25.4043 39.5935 22.1198 39.5935 18.0513C39.5935 14.7896 37.9886 11.7091 35.3096 9.81287H35.3109ZM31.0447 18.8138C28.5418 21.8386 25.5043 24.2769 22.0223 26.0769C20.634 26.7938 19.1837 27.398 17.6991 27.8768C17.5851 27.9161 17.4661 27.9325 17.347 27.9325C16.7213 27.9325 16.2095 27.4246 16.2095 26.7989V22.1654C16.2095 21.5397 15.6978 21.0368 15.0721 21.0368H9.42907C8.98573 21.0368 8.58673 20.7885 8.39927 20.3883C8.20547 19.988 8.2688 19.5244 8.55253 19.1811C11.0504 16.1627 14.0879 13.7193 17.575 11.9244C18.9569 11.2075 20.4136 10.5982 21.8981 10.1181C22.0121 10.0839 22.1261 10.0611 22.2452 10.0611C22.8709 10.0611 23.3827 10.5691 23.3827 11.1948V15.8333C23.3827 16.454 23.8944 16.9619 24.5201 16.9619H30.1695C30.6128 16.9619 31.0055 17.2102 31.1929 17.6054C31.3867 18.0057 31.3297 18.4693 31.0447 18.8125V18.8138Z" fill="#DF4425"/>
</g>
<defs>
<clipPath id="clip0_5259_5045">
<rect width="210.585" height="38" fill="white"/>
</clipPath>
</defs>
</svg>
