<svg width="178" height="33" viewBox="0 0 178 33" fill="none" xmlns="http://www.w3.org/2000/svg">
<g clip-path="url(#clip0_5259_4814)">
<path d="M39.7433 16.5301C39.7433 11.6864 43.1342 8.3584 47.9779 8.3584C52.8217 8.3584 56.0878 11.5957 56.0878 16.5013V23.9968H52.7257V21.0048C51.7998 23.2544 49.7337 24.3957 47.3294 24.3957C43.627 24.3957 39.7422 21.744 39.7422 16.5312L39.7433 16.5301ZM52.4185 16.3765C52.4185 13.6949 50.6297 11.7824 47.9481 11.7824C45.2665 11.7824 43.4446 13.696 43.4446 16.3765C43.4446 19.0571 45.2622 20.9707 47.9481 20.9707C50.6339 20.9707 52.4185 19.0571 52.4185 16.3765Z" fill="#231232"/>
<path d="M57.9717 16.5013C57.9717 11.5669 61.3007 8.3584 66.0816 8.3584C70.8624 8.3584 74.3162 11.6875 74.3162 16.5301C74.3162 21.7429 70.4314 24.3947 66.729 24.3947C64.5381 24.3947 62.7194 23.4688 61.641 21.7717V30.5003H57.9717V16.5003V16.5013ZM70.617 16.3765C70.617 13.6949 68.7994 11.7824 66.1135 11.7824C63.4277 11.7824 61.6432 13.696 61.6432 16.3765C61.6432 19.0571 63.4319 20.9707 66.1135 20.9707C68.7951 20.9707 70.617 19.0571 70.617 16.3765Z" fill="#231232"/>
<path d="M75.4717 16.5013C75.4717 11.5669 78.8007 8.3584 83.5815 8.3584C88.3623 8.3584 91.8162 11.6875 91.8162 16.5301C91.8162 21.7429 87.9314 24.3947 84.229 24.3947C82.0381 24.3947 80.2194 23.4688 79.141 21.7717V30.5003H75.4717V16.5003V16.5013ZM88.1149 16.3765C88.1149 13.6949 86.2973 11.7824 83.6114 11.7824C80.9255 11.7824 79.141 13.696 79.141 16.3765C79.141 19.0571 80.9298 20.9707 83.6114 20.9707C86.293 20.9707 88.1149 19.0571 88.1149 16.3765Z" fill="#231232"/>
<path d="M93.4297 2.09961H97.099V23.9972H93.4297V2.09961Z" fill="#231232"/>
<path d="M103.123 25.6581C103.742 27.0778 104.941 27.7253 106.792 27.7253C109.291 27.7253 110.71 26.5221 110.71 23.5621V21.6485C109.784 23.3125 108.182 24.2095 106.178 24.2095C102.662 24.2095 99.3301 21.9269 99.3301 16.4986V8.75781H102.999V16.4986C102.999 19.3957 104.54 20.7855 106.855 20.7855C109.171 20.7855 110.711 19.337 110.711 16.4986V8.75781H114.381V23.4671C114.381 28.7717 111.019 30.9007 106.794 30.9007C103.249 30.9007 100.319 29.2655 99.4517 25.6591H103.124L103.123 25.6581Z" fill="#231232"/>
<path d="M116.585 16.5013C116.585 11.5669 119.914 8.3584 124.695 8.3584C129.476 8.3584 132.929 11.6875 132.929 16.5301C132.929 21.7429 129.045 24.3947 125.342 24.3947C123.151 24.3947 121.333 23.4688 120.254 21.7717V30.5003H116.585V16.5003V16.5013ZM129.231 16.3765C129.231 13.6949 127.414 11.7824 124.728 11.7824C122.042 11.7824 120.257 13.696 120.257 16.3765C120.257 19.0571 122.046 20.9707 124.728 20.9707C127.409 20.9707 129.231 19.0571 129.231 16.3765Z" fill="#231232"/>
<path d="M133.588 16.5301C133.588 11.6864 136.979 8.3584 141.823 8.3584C146.666 8.3584 149.932 11.5957 149.932 16.5013V23.9968H146.57V21.0048C145.645 23.2544 143.578 24.3957 141.175 24.3957C137.473 24.3957 133.588 21.744 133.588 16.5312V16.5301ZM146.263 16.3765C146.263 13.6949 144.474 11.7824 141.793 11.7824C139.111 11.7824 137.289 13.696 137.289 16.3765C137.289 19.0571 139.107 20.9707 141.793 20.9707C144.479 20.9707 146.263 19.0571 146.263 16.3765Z" fill="#231232"/>
<path d="M151.081 19.4894H154.783C154.812 20.506 155.709 21.1865 157.498 21.1865C159.378 21.1865 160.179 20.4142 160.179 19.4894C160.179 18.3193 158.822 18.1657 157.187 17.946C154.843 17.6388 151.389 17.2366 151.389 13.5054C151.389 10.3929 153.763 8.35449 157.432 8.35449C161.1 8.35449 163.445 10.4505 163.537 13.1353H159.898C159.806 12.2094 158.943 11.562 157.49 11.562C155.888 11.562 155.083 12.3342 155.083 13.226C155.083 14.3961 156.469 14.5828 158.105 14.7993C160.139 15.0777 163.87 15.4756 163.87 19.2697C163.87 22.3534 161.372 24.3876 157.487 24.3876C153.602 24.3876 151.166 22.3204 151.074 19.4862L151.082 19.4894H151.081Z" fill="#231232"/>
<path d="M164.546 19.4894H168.249C168.278 20.506 169.175 21.1865 170.964 21.1865C172.844 21.1865 173.645 20.4142 173.645 19.4894C173.645 18.3193 172.288 18.1657 170.653 17.946C168.309 17.6388 164.855 17.2366 164.855 13.5054C164.855 10.3929 167.229 8.35449 170.897 8.35449C174.566 8.35449 176.911 10.4505 177.003 13.1353H173.364C173.272 12.2094 172.409 11.562 170.956 11.562C169.354 11.562 168.549 12.3342 168.549 13.226C168.549 14.3961 169.935 14.5828 171.57 14.7993C173.605 15.0777 177.336 15.4756 177.336 19.2697C177.336 22.3534 174.838 24.3876 170.953 24.3876C167.068 24.3876 164.632 22.3204 164.54 19.4862L164.548 19.4894H164.546Z" fill="#231232"/>
<path d="M29.7355 8.76347C28.2741 7.72773 26.5547 7.18587 24.7531 7.18587H22.8704C22.5589 7.18587 22.3051 6.93413 22.3051 6.6248V0.975733C22.3051 0.7144 22.0896 0.5 21.8208 0.5C21.7973 0.5 21.7728 0.5 21.7493 0.504267C19.8955 0.761333 18.0555 1.19333 16.2827 1.78213C13.0677 2.85627 10.0736 4.44773 7.37707 6.52027C6.0544 7.5368 4.8096 8.66853 3.66933 9.88453C2.48107 11.1581 1.264 12.5309 0.6272 14.0947C0.210133 15.1112 0 16.1907 0 17.2979C0 20.0445 1.34613 22.6387 3.60747 24.2355C5.06347 25.2669 6.78827 25.8131 8.58453 25.8131H10.4725C10.7787 25.8131 11.0325 26.0648 11.0325 26.3741V32.0243C11.0325 32.2856 11.2533 32.4989 11.5211 32.4989C11.5445 32.4989 11.5691 32.4947 11.5925 32.4947C14.6581 32.0669 17.6288 31.1827 20.4171 29.8621C23.4635 28.4221 26.2325 26.5021 28.6517 24.1501C30.9707 21.8931 33.3419 19.1272 33.3419 15.7011C33.3419 12.9544 31.9904 10.3603 29.7344 8.76347H29.7355ZM26.1429 16.3432C24.0352 18.8904 21.4773 20.9437 18.5451 22.4595C17.376 23.0632 16.1547 23.572 14.9045 23.9752C14.8085 24.0083 14.7083 24.0221 14.608 24.0221C14.0811 24.0221 13.6501 23.5944 13.6501 23.0675V19.1656C13.6501 18.6387 13.2192 18.2152 12.6923 18.2152H7.94027C7.56693 18.2152 7.23093 18.0061 7.07307 17.6691C6.90987 17.332 6.9632 16.9416 7.20213 16.6525C9.3056 14.1107 11.8635 12.0531 14.8 10.5416C15.9637 9.93787 17.1904 9.4248 18.4405 9.02053C18.5365 8.99173 18.6325 8.97253 18.7328 8.97253C19.2597 8.97253 19.6907 9.40027 19.6907 9.9272V13.8333C19.6907 14.356 20.1216 14.7837 20.6485 14.7837H25.4059C25.7792 14.7837 26.1099 14.9928 26.2677 15.3256C26.4309 15.6627 26.3829 16.0531 26.1429 16.3421V16.3432Z" fill="#DF4425"/>
</g>
<defs>
<clipPath id="clip0_5259_4814">
<rect width="177.334" height="32" fill="white" transform="translate(0 0.5)"/>
</clipPath>
</defs>
</svg>
