<svg width="48" height="48" viewBox="0 0 48 48" fill="none" xmlns="http://www.w3.org/2000/svg">
<path d="M41.865 14.9998H31.5C31.1022 14.9998 30.7206 14.8417 30.4393 14.5604C30.158 14.2791 30 13.8976 30 13.4998V3.13477C31.7751 3.43728 33.4113 4.28687 34.68 5.56477L39.435 10.3198C40.7105 11.5902 41.5596 13.2256 41.865 14.9998Z" fill="url(#paint0_linear_4669_17198)"/>
<path d="M31.5 18C30.3065 18 29.1619 17.5259 28.318 16.682C27.4741 15.8381 27 14.6935 27 13.5V3H13.5C11.5109 3 9.60322 3.79018 8.1967 5.1967C6.79018 6.60322 6 8.51088 6 10.5V37.5C6 39.4891 6.79018 41.3968 8.1967 42.8033C9.60322 44.2098 11.5109 45 13.5 45H34.5C36.4891 45 38.3968 44.2098 39.8033 42.8033C41.2098 41.3968 42 39.4891 42 37.5V18H31.5ZM24 21C24.89 21 25.76 21.2639 26.5001 21.7584C27.2401 22.2529 27.8169 22.9557 28.1575 23.7779C28.4981 24.6002 28.5872 25.505 28.4135 26.3779C28.2399 27.2508 27.8113 28.0526 27.182 28.682C26.5526 29.3113 25.7508 29.7399 24.8779 29.9135C24.005 30.0872 23.1002 29.9981 22.2779 29.6575C21.4557 29.3169 20.7529 28.7401 20.2584 28.0001C19.7639 27.26 19.5 26.39 19.5 25.5C19.5 24.3065 19.9741 23.1619 20.818 22.318C21.6619 21.4741 22.8065 21 24 21ZM28.5 39H19.5C18.7044 39 17.9413 38.6839 17.3787 38.1213C16.8161 37.5587 16.5 36.7957 16.5 36C16.5 34.8065 16.9741 33.6619 17.818 32.818C18.6619 31.9741 19.8065 31.5 21 31.5H27C28.1935 31.5 29.3381 31.9741 30.182 32.818C31.0259 33.6619 31.5 34.8065 31.5 36C31.5 36.7957 31.1839 37.5587 30.6213 38.1213C30.0587 38.6839 29.2956 39 28.5 39Z" fill="#1D4ED8"/>
<defs>
<linearGradient id="paint0_linear_4669_17198" x1="30" y1="3.13477" x2="41.4769" y2="15.364" gradientUnits="userSpaceOnUse">
<stop stop-color="#FF8909"/>
<stop offset="1" stop-color="#FFC565"/>
</linearGradient>
</defs>
</svg>
