<svg width="17" height="17" viewBox="0 0 17 17" fill="none" xmlns="http://www.w3.org/2000/svg">
<path d="M8.96393 14.6682C8.67336 14.516 8.32664 14.516 8.03607 14.6682L4.42151 16.5611C3.68765 16.9454 2.83152 16.3219 2.97208 15.5056L3.66051 11.5073C3.71652 11.182 3.60842 10.8501 3.37163 10.6202L0.458272 7.79134C-0.137195 7.21315 0.190213 6.20311 1.01164 6.08421L5.04466 5.50045C5.37005 5.45336 5.65149 5.24932 5.79746 4.95472L7.60395 1.30856C7.97127 0.56716 9.02872 0.567158 9.39605 1.30856L11.2025 4.95472C11.3485 5.24932 11.63 5.45336 11.9553 5.50045L15.9884 6.08421C16.8098 6.20311 17.1372 7.21315 16.5417 7.79134L13.6284 10.6202C13.3916 10.8501 13.2835 11.182 13.3395 11.5073L14.0279 15.5056C14.1685 16.3219 13.3123 16.9454 12.5785 16.5611L8.96393 14.6682Z" fill="#FCAC12"/>
</svg>
