<svg width="81" height="81" viewBox="0 0 81 81" fill="none" xmlns="http://www.w3.org/2000/svg">
<path d="M52.8213 49.8382C54.1546 48.5049 54.1546 46.5049 52.8213 45.1716L42.8213 35.1716C41.4879 33.8382 39.4879 33.8382 38.1546 35.1716L28.1546 45.1716C26.8213 46.5049 26.8213 48.5049 28.1546 49.8382C29.4879 51.1716 31.4879 51.1716 32.8213 49.8382L37.1546 45.5049V64.1716C37.1546 66.1716 38.4879 67.5049 40.4879 67.5049C42.4879 67.5049 43.8213 66.1716 43.8213 64.1716V45.5049L48.1546 49.8382C49.4879 51.1716 51.4879 51.1716 52.8213 49.8382ZM61.8213 28.1716C56.8213 16.5049 43.1546 10.8382 31.1546 16.1716C23.4879 19.5049 18.1546 26.5049 17.1546 34.8382C10.1546 36.5049 5.48793 43.8382 7.1546 50.8382C8.82126 56.5049 14.4879 60.8382 20.4879 60.8382H32.1546V55.5049C29.4879 56.1716 26.4879 55.1716 24.4879 53.1716C21.1546 49.8382 21.1546 44.5049 24.4879 41.5049L34.4879 31.5049C36.1546 29.8382 38.1546 29.1716 40.4879 29.1716C42.8213 29.1716 44.8213 30.1716 46.4879 31.5049L56.4879 41.5049C59.8213 44.8382 59.8213 50.1716 56.4879 53.1716C54.4879 55.1716 51.8213 56.1716 48.8213 55.5049V60.8382H57.1546C66.4879 60.8382 73.8213 53.5049 73.8213 44.1716C73.8213 36.8382 69.1546 30.5049 61.8213 28.1716Z" fill="#6805DA"/>
</svg>
